<svg id="icon-pjec-text" viewBox="0 0 202 32" width="100%" height="100%"> <path fill="#ffffff" class="path1" d="M20.451 26.554h-1.743v5.038h1.743c0.809 0 1.353-0.237 1.632-0.714 0.143-0.24 0.242-0.507 0.298-0.806 0.057-0.297 0.085-0.657 0.085-1.084 0-0.837-0.143-1.453-0.426-1.846-0.285-0.391-0.815-0.588-1.589-0.588zM21.579 29.753c-0.027 0.206-0.079 0.402-0.158 0.582-0.161 0.358-0.486 0.537-0.97 0.537h-0.927v-3.604h0.927c0.475 0 0.789 0.136 0.941 0.405 0.152 0.271 0.229 0.709 0.229 1.316 0 0.303-0.014 0.559-0.041 0.764z"></path> <path fill="#ffffff" class="path2" d="M24.45 31.591h3.177v-0.721h-2.361v-1.472h1.92v-0.704h-1.92v-1.428h2.361v-0.713h-3.177z"></path> <path fill="#ffffff" class="path3" d="M30.362 26.554h-0.816v5.037h2.824v-0.726h-2.008z"></path> <path fill="#ffffff" class="path4" d="M36.717 31.591h3.176v-0.721h-2.36v-1.472h1.92v-0.704h-1.92v-1.428h2.36v-0.713h-3.176z"></path> <path fill="#ffffff" class="path5" d="M43.552 28.677c-0.502-0.14-0.827-0.257-0.974-0.352s-0.221-0.257-0.221-0.484c0-0.434 0.311-0.652 0.934-0.652 0.285 0 0.769 0.037 1.456 0.117l0.066-0.661-0.257-0.046c-0.515-0.087-0.961-0.132-1.338-0.132-0.524 0-0.935 0.116-1.233 0.35-0.297 0.232-0.444 0.576-0.444 1.033s0.118 0.79 0.353 1.001c0.234 0.21 0.592 0.375 1.073 0.495s0.789 0.231 0.927 0.33c0.137 0.101 0.206 0.257 0.206 0.469 0 0.538-0.304 0.808-0.913 0.808-0.347 0-0.852-0.044-1.515-0.133l-0.080 0.656 0.265 0.052c0.504 0.098 0.965 0.147 1.382 0.147 0.52 0 0.93-0.132 1.232-0.393 0.302-0.263 0.453-0.659 0.453-1.187 0-0.418-0.103-0.723-0.309-0.916s-0.56-0.361-1.062-0.5z"></path> <path fill="#ffffff" class="path6" d="M46.35 27.283h1.434v4.309h0.823v-4.309h1.42v-0.729h-3.676z"></path> <path fill="#ffffff" class="path7" d="M52.241 26.554l-1.243 5.037h0.816l0.272-1.080h1.935l0.272 1.080h0.823l-1.249-5.037h-1.626zM52.248 29.791l0.625-2.551h0.368l0.618 2.551h-1.611z"></path> <path fill="#ffffff" class="path8" d="M58.609 26.554h-1.743v5.038h1.743c0.809 0 1.353-0.237 1.633-0.714 0.143-0.24 0.242-0.507 0.298-0.806 0.057-0.295 0.086-0.657 0.086-1.084 0-0.837-0.143-1.453-0.427-1.846-0.286-0.391-0.815-0.588-1.589-0.588zM59.738 29.753c-0.027 0.206-0.080 0.402-0.158 0.582-0.161 0.358-0.486 0.537-0.971 0.537h-0.927v-3.604h0.927c0.476 0 0.789 0.136 0.941 0.405 0.152 0.271 0.228 0.709 0.228 1.316 0 0.303-0.014 0.559-0.041 0.764z"></path> <path fill="#ffffff" class="path9" d="M64.441 26.474c-0.755 0-1.285 0.217-1.592 0.646-0.306 0.433-0.46 1.093-0.46 1.98 0 0.888 0.152 1.538 0.456 1.951 0.303 0.415 0.836 0.622 1.596 0.622s1.291-0.206 1.592-0.617c0.301-0.413 0.452-1.064 0.452-1.956 0-0.894-0.152-1.552-0.456-1.983-0.303-0.429-0.834-0.643-1.588-0.643zM65.392 30.534c-0.164 0.283-0.482 0.426-0.952 0.426s-0.789-0.145-0.956-0.436c-0.167-0.287-0.251-0.767-0.251-1.429 0-0.665 0.086-1.149 0.257-1.453s0.488-0.455 0.949-0.455 0.776 0.151 0.945 0.455c0.169 0.304 0.252 0.79 0.252 1.459 0.001 0.671-0.082 1.148-0.245 1.432z"></path> <path fill="#ffffff" class="path10" d="M72.854 26.554h-1.743v5.038h1.743c0.809 0 1.353-0.237 1.632-0.714 0.143-0.24 0.242-0.507 0.298-0.806 0.057-0.297 0.086-0.657 0.086-1.084 0-0.837-0.143-1.453-0.427-1.846-0.286-0.391-0.815-0.588-1.588-0.588zM73.982 29.753c-0.027 0.206-0.079 0.402-0.158 0.582-0.161 0.358-0.486 0.537-0.97 0.537h-0.927v-3.604h0.927c0.475 0 0.789 0.136 0.941 0.405 0.153 0.271 0.229 0.709 0.229 1.316-0.001 0.303-0.015 0.559-0.041 0.764z"></path> <path fill="#ffffff" class="path11" d="M76.853 31.591h3.177v-0.721h-2.361v-1.472h1.919v-0.704h-1.919v-1.428h2.361v-0.713h-3.177z"></path> <path fill="#ffffff" class="path12" d="M86.377 27.202c0.441 0 0.883 0.039 1.324 0.117l0.030-0.661c-0.525-0.122-1.006-0.184-1.442-0.184-0.73 0-1.229 0.198-1.493 0.594-0.264 0.393-0.397 1.056-0.397 1.988 0 0.933 0.131 1.602 0.394 2.009 0.262 0.407 0.76 0.61 1.496 0.61 0.451 0 0.929-0.054 1.434-0.161l-0.022-0.677c-0.451 0.074-0.897 0.11-1.338 0.11s-0.738-0.132-0.89-0.394c-0.152-0.261-0.228-0.754-0.228-1.477 0-0.725 0.078-1.216 0.235-1.479 0.156-0.261 0.455-0.392 0.897-0.392z"></path> <path fill="#ffffff" class="path13" d="M91.4 26.474c-0.756 0-1.285 0.217-1.592 0.646-0.306 0.433-0.46 1.093-0.46 1.98 0 0.888 0.152 1.538 0.456 1.951 0.304 0.415 0.836 0.622 1.596 0.622s1.291-0.206 1.592-0.617c0.301-0.413 0.452-1.064 0.452-1.956 0-0.894-0.152-1.552-0.456-1.983-0.303-0.429-0.834-0.643-1.588-0.643zM92.352 30.534c-0.164 0.283-0.482 0.426-0.952 0.426s-0.789-0.145-0.956-0.436c-0.167-0.287-0.25-0.767-0.25-1.429 0-0.665 0.085-1.149 0.256-1.453s0.488-0.455 0.949-0.455 0.775 0.151 0.945 0.455c0.168 0.304 0.253 0.79 0.253 1.459 0.001 0.671-0.082 1.148-0.245 1.432z"></path> <path fill="#ffffff" class="path14" d="M96.151 26.554l-1.242 5.037h0.816l0.272-1.080h1.935l0.272 1.080h0.823l-1.25-5.037h-1.626zM96.157 29.791l0.625-2.551h0.368l0.618 2.551h-1.611z"></path> <path fill="#ffffff" class="path15" d="M103.769 28.702h-2.177v-2.148h-0.816v5.037h0.816v-2.176h2.177v2.176h0.824v-5.037h-0.824z"></path> <path fill="#ffffff" class="path16" d="M109.616 29.982c0 0.653-0.344 0.979-1.030 0.979-0.687 0-1.030-0.325-1.030-0.979v-3.428h-0.823v3.413c0 0.591 0.155 1.025 0.463 1.296 0.31 0.273 0.772 0.41 1.387 0.41s1.078-0.137 1.389-0.41c0.311-0.272 0.467-0.705 0.467-1.296v-3.413h-0.823v3.428z"></path> <path fill="#ffffff" class="path17" d="M112.588 26.554h0.816v5.037h-0.816v-5.037z"></path> <path fill="#ffffff" class="path18" d="M116.411 26.554h-0.815v5.037h2.824v-0.726h-2.009z"></path> <path fill="#ffffff" class="path19" d="M120.928 26.554l-1.243 5.037h0.816l0.272-1.080h1.935l0.272 1.080h0.823l-1.25-5.037h-1.626zM120.935 29.791l0.626-2.551h0.368l0.617 2.551h-1.611z"></path> <path fill="#ffffff" class="path20" d="M129.944 26.555h-1.743v5.037h1.743c0.809 0 1.353-0.237 1.632-0.714 0.143-0.24 0.243-0.507 0.298-0.806 0.057-0.295 0.085-0.657 0.085-1.084 0-0.837-0.143-1.453-0.426-1.846-0.285-0.391-0.814-0.587-1.589-0.587zM131.073 29.753c-0.027 0.206-0.079 0.402-0.157 0.582-0.161 0.358-0.486 0.537-0.971 0.537h-0.927v-3.604h0.927c0.475 0 0.789 0.136 0.942 0.405 0.152 0.271 0.228 0.709 0.228 1.316-0.001 0.303-0.014 0.559-0.041 0.764z"></path> <path fill="#ffffff" class="path21" d="M133.944 31.591h3.177v-0.721h-2.361v-1.472h1.92v-0.703h-1.92v-1.429h2.361v-0.713h-3.177z"></path> <path fill="#ffffff" class="path22" d="M141.415 27.267h2.331v0.147l-2.331 3.399v0.779h3.31v-0.714h-2.338v-0.14l2.338-3.398v-0.786h-3.31z"></path> <path fill="#ffffff" class="path23" d="M147.454 26.554l-1.243 5.037h0.816l0.272-1.080h1.935l0.272 1.080h0.823l-1.25-5.037h-1.626zM147.46 29.791l0.626-2.551h0.368l0.617 2.551h-1.611z"></path> <path fill="#ffffff" class="path24" d="M155.698 28.159c0-1.071-0.569-1.605-1.707-1.605h-1.912v5.037h0.816v-1.792h1.184l0.729 1.792h0.898l-0.83-1.977c0.548-0.254 0.823-0.741 0.823-1.455zM154.653 28.838c-0.137 0.168-0.353 0.253-0.648 0.253h-1.111v-1.831h1.096c0.579 0 0.868 0.302 0.868 0.903 0.001 0.281-0.068 0.505-0.205 0.674z"></path> <path fill="#ffffff" class="path25" d="M158.411 26.554l-1.243 5.037h0.816l0.272-1.080h1.935l0.272 1.080h0.823l-1.25-5.037h-1.626zM158.417 29.791l0.626-2.551h0.368l0.618 2.551h-1.611z"></path> <path fill="#ffffff" class="path26" d="M164.816 27.202c0.471 0 1.003 0.039 1.596 0.117l0.029-0.648-0.257-0.051c-0.539-0.098-1.025-0.147-1.457-0.147-0.73 0-1.244 0.206-1.539 0.617-0.297 0.413-0.446 1.067-0.446 1.968s0.145 1.561 0.434 1.982c0.29 0.422 0.818 0.633 1.581 0.633 0.182 0 0.475-0.020 0.879-0.060 0.405-0.038 0.673-0.075 0.805-0.109v-2.56h-1.434v0.721h0.626v1.228c-0.177 0.046-0.443 0.067-0.802 0.067-0.5 0-0.832-0.137-0.996-0.41-0.164-0.272-0.246-0.767-0.246-1.48 0-0.717 0.087-1.208 0.26-1.472s0.496-0.397 0.967-0.397z"></path> <path fill="#ffffff" class="path27" d="M170.326 26.474c-0.755 0-1.285 0.217-1.592 0.646-0.307 0.433-0.46 1.093-0.46 1.98 0 0.888 0.152 1.538 0.456 1.951 0.304 0.415 0.836 0.622 1.596 0.622s1.291-0.206 1.592-0.617c0.301-0.413 0.452-1.064 0.452-1.956 0-0.894-0.152-1.552-0.456-1.983-0.303-0.429-0.833-0.643-1.588-0.643zM171.278 30.534c-0.164 0.283-0.482 0.426-0.952 0.426s-0.789-0.145-0.956-0.436c-0.166-0.287-0.25-0.767-0.25-1.429 0-0.665 0.086-1.149 0.257-1.453s0.487-0.455 0.948-0.455 0.776 0.151 0.946 0.455c0.168 0.304 0.253 0.79 0.253 1.459 0.001 0.671-0.082 1.148-0.246 1.432z"></path> <path fill="#ffffff" class="path28" d="M174.075 27.267h2.332v0.147l-2.332 3.399v0.779h3.31v-0.714h-2.339v-0.14l2.339-3.398v-0.786h-3.31z"></path> <path fill="#ffffff" class="path29" d="M180.113 26.554l-1.243 5.037h0.817l0.272-1.080h1.935l0.272 1.080h0.823l-1.25-5.037h-1.626zM180.121 29.791l0.625-2.551h0.368l0.618 2.551h-1.611z"></path> <path fill="#ffffff" class="path30" d="M4.654 1.457h-4.247v0.099c0.585 0 1.218 0.376 1.218 1.228v11.327c0 0.911-0.633 1.265-1.218 1.265v0.097h3.992v-0.096c-0.572 0-1.218-0.33-1.218-1.314v-11.826h0.815c2.093 0 3.602 1.289 3.602 3.211 0 1.887-1.314 3.504-4.088 3.468v0.097c0.269 0.11 0.973 0.207 1.534 0.207 2.421 0 4.111-1.593 4.111-3.868 0-2.155-1.727-3.894-4.502-3.894z"></path> <path fill="#ffffff" class="path31" d="M21.245 1.337c-3.589 0-7.069 3.029-7.069 7.129 0 4.27 3.395 7.13 7.069 7.13 3.759 0 7.068-2.847 7.068-7.13 0-4.21-3.357-7.129-7.068-7.129zM21.549 14.805c-3.26 0-5.815-2.956-5.815-6.462 0-4.074 2.701-6.192 5.146-6.192 3.735 0 5.876 3.101 5.876 6.68 0 3.651-2.299 5.974-5.207 5.974z"></path> <path fill="#ffffff" class="path32" d="M39.004 1.457h-5.912v0.099c1.095 0 1.668 0.791 1.668 1.898v10.024c0 1.107-0.572 1.898-1.668 1.898v0.097h5.658c5.682 0 8.237-3.016 8.237-7.006s-2.703-7.009-7.983-7.009zM38.809 14.696h-1.009c-1.035 0-1.485-0.536-1.485-1.522v-10.936h2.324c4.331 0 6.789 2.493 6.789 6.23 0 3.564-2.738 6.229-6.619 6.229z"></path> <path fill="#ffffff" class="path33" d="M59.379 14.696h-3.297c-0.791 0-1.302-0.488-1.302-1.289v-4.672h3.941c0.561 0 0.73 0.351 0.73 0.619h0.097v-1.764h-0.097c0 0.268-0.17 0.619-0.73 0.619h-3.941v-5.972h4.318c0.767 0 1.204 0.523 1.204 1.217h0.098c0 0 0.025-1.23-0.048-1.997h-8.346v0.099c0.693 0 1.217 0.45 1.217 1.215v11.389c0 0.767-0.524 1.217-1.217 1.217v0.097h8.967c0.145-0.718 0.231-2.396 0.231-2.396h-0.098c-0.060 0.986-0.729 1.619-1.727 1.619z"></path> <path fill="#ffffff" class="path34" d="M79.219 15.473l0.036-0.097c-1.812-0.804-4.867-3.857-6.582-6.57 1.485-0.622 2.3-1.873 2.3-3.455 0-2.155-1.728-3.895-4.502-3.895h-4.246v0.099c0.583 0 1.216 0.376 1.216 1.228v11.327c0 0.912-0.634 1.265-1.216 1.265v0.097h3.99v-0.097c-0.571 0-1.215-0.329-1.215-1.314v-4.843h1.373c0.22 0 0.426 0 0.633-0.024 3.091 4.332 4.782 6.034 8.213 6.277zM69.327 8.649h-0.328v-6.412h0.815c2.092 0 3.601 1.289 3.601 3.212-0.001 1.886-1.315 3.235-4.088 3.2z"></path> <path fill="#ffffff" class="path35" d="M95.586 1.457h-3.503v0.099c0.584 0 0.973 0.437 0.973 0.973v8.942c0 4.050-0.244 5.4-1.448 7.043l0.060 0.073c2.421-1.301 2.944-2.834 2.944-7.3v-8.758c0-0.536 0.39-0.973 0.972-0.973v-0.099z"></path> <path fill="#ffffff" class="path36" d="M111.108 1.556c0.583 0 0.961 0.316 0.961 0.997v7.605c0 2.882-1.923 4.404-4.283 4.404s-4.282-1.522-4.282-4.404v-7.336c0-0.914 0.633-1.265 1.216-1.265v-0.099h-3.99v0.099c0.584 0 1.216 0.352 1.216 1.265v7.202c0 3.686 2.444 5.572 5.45 5.572 3.005 0 5.45-1.96 5.45-5.572v-7.47c0-0.681 0.376-0.997 0.961-0.997v-0.099h-2.701v0.099z"></path> <path fill="#ffffff" class="path37" d="M124.62 1.457h-5.913v0.099c1.095 0 1.666 0.791 1.666 1.898v10.024c0 1.107-0.571 1.898-1.666 1.898v0.097h5.658c5.681 0 8.237-3.016 8.237-7.006s-2.702-7.009-7.982-7.009zM124.426 14.696h-1.009c-1.035 0-1.485-0.536-1.485-1.522v-10.936h2.324c4.331 0 6.789 2.493 6.789 6.23 0 3.564-2.738 6.229-6.619 6.229z"></path> <path fill="#ffffff" class="path38" d="M141.491 15.377c-0.584 0-0.973-0.437-0.973-0.973v-11.874c0-0.536 0.389-0.973 0.973-0.973v-0.099h-3.505v0.099c0.584 0 0.974 0.437 0.974 0.973v11.874c0 0.536-0.39 0.973-0.974 0.973v0.097h3.505v-0.096z"></path> <path fill="#ffffff" class="path39" d="M154.384 15.596c2.701 0 4.478-0.525 5.511-0.973 0.098-1.11 0.22-2.825 0.22-2.825h-0.098c-0.62 2.348-2.616 3.018-5.572 3.018-3.151 0-6.009-2.75-6.009-6.35 0-3.771 2.7-6.352 5.937-6.352 2.178 0 3.759 0.657 4.696 2.423h0.11l-0.366-2.142c-0.451-0.048-1.885-1.058-4.805-1.058-3.942 0-7.129 3.224-7.129 7.129 0 3.906 2.919 7.13 7.506 7.13z"></path> <path fill="#ffffff" class="path40" d="M166.109 2.53v11.874c0 0.536-0.39 0.973-0.973 0.973v0.097h3.504v-0.097c-0.584 0-0.973-0.437-0.973-0.973v-11.874c0-0.536 0.389-0.973 0.973-0.973v-0.099h-3.504v0.099c0.584 0 0.973 0.437 0.973 0.973z"></path> <path fill="#ffffff" class="path41" d="M186.376 14.088l-6.047-13.761c-0.122 0.609-0.62 1.072-1.241 1.169l-5.048 12.592c-0.353 0.876-1.108 1.289-1.838 1.289v0.097h3.577v-0.097c-0.681 0-1.142-0.681-0.888-1.313l2.020-5.074h5.523l2.215 5.074c0.268 0.608-0.182 1.313-0.888 1.313v0.097h4.429v-0.097c-0.732 0-1.4-0.34-1.814-1.289zM177.117 8.467l2.444-6.095 2.653 6.095h-5.097z"></path> <path fill="#ffffff" class="path42" d="M201.092 12.846l-0.729 1.434c-0.146 0.268-0.414 0.415-0.73 0.415h-3.553c-1.216 0-1.922-0.707-1.922-1.946v-10.22c0-0.536 0.413-0.973 0.948-0.973v-0.099h-3.479v0.099c0.535 0 0.973 0.437 0.973 0.973v11.874c0 0.536-0.438 0.973-0.973 0.973v0.097h8.686l0.974-2.555-0.195-0.072z"></path> </svg>